<mxfile host="Electron" agent="Mozilla/5.0 (Windows NT 10.0; Win64; x64) AppleWebKit/537.36 (KHTML, like Gecko) draw.io/24.7.17 Chrome/128.0.6613.36 Electron/32.0.1 Safari/537.36" version="24.7.17">
  <diagram id="RGr1q8CzV36uV8QbhTsL" name="Page-1">
    <mxGraphModel dx="1195" dy="712" grid="1" gridSize="9" guides="1" tooltips="1" connect="1" arrows="1" fold="1" page="1" pageScale="1" pageWidth="1169" pageHeight="827" math="0" shadow="0">
      <root>
        <mxCell id="0" />
        <mxCell id="1" parent="0" />
        <mxCell id="8PcKajMd3n9XK8rWufk9-16" value="" style="rounded=0;whiteSpace=wrap;html=1;fillColor=none;movable=1;resizable=1;rotatable=1;deletable=1;editable=1;locked=0;connectable=1;" vertex="1" parent="1">
          <mxGeometry x="9" y="9" width="684" height="405" as="geometry" />
        </mxCell>
        <mxCell id="DDoYbjtW6jiePf0yL-Tp-10" value="" style="sketch=0;points=[[0,0,0],[0.25,0,0],[0.5,0,0],[0.75,0,0],[1,0,0],[0,1,0],[0.25,1,0],[0.5,1,0],[0.75,1,0],[1,1,0],[0,0.25,0],[0,0.5,0],[0,0.75,0],[1,0.25,0],[1,0.5,0],[1,0.75,0]];outlineConnect=0;fontColor=#232F3E;fillColor=#3333FF;strokeColor=#ffffff;dashed=0;verticalLabelPosition=bottom;verticalAlign=top;align=center;html=1;fontSize=12;fontStyle=0;aspect=fixed;shape=mxgraph.aws4.resourceIcon;resIcon=mxgraph.aws4.codedeploy;" parent="1" vertex="1">
          <mxGeometry x="298.96" y="306" width="54" height="54" as="geometry" />
        </mxCell>
        <mxCell id="8PcKajMd3n9XK8rWufk9-12" style="edgeStyle=orthogonalEdgeStyle;rounded=0;orthogonalLoop=1;jettySize=auto;html=1;" edge="1" parent="1" source="DDoYbjtW6jiePf0yL-Tp-14" target="DDoYbjtW6jiePf0yL-Tp-10">
          <mxGeometry relative="1" as="geometry" />
        </mxCell>
        <mxCell id="DDoYbjtW6jiePf0yL-Tp-14" value="&lt;b&gt;AWS CodePipeline&lt;/b&gt;" style="text;html=1;align=center;verticalAlign=middle;whiteSpace=wrap;rounded=0;movable=1;resizable=1;rotatable=1;deletable=1;editable=1;locked=0;connectable=1;container=0;" parent="1" vertex="1">
          <mxGeometry x="289.96" y="216" width="72" height="36" as="geometry" />
        </mxCell>
        <mxCell id="DDoYbjtW6jiePf0yL-Tp-15" value="&lt;b&gt;AWS CodeDeploy&lt;/b&gt;" style="text;html=1;align=center;verticalAlign=middle;whiteSpace=wrap;rounded=0;movable=1;resizable=1;rotatable=1;deletable=1;editable=1;locked=0;connectable=1;container=0;" parent="1" vertex="1">
          <mxGeometry x="290.77" y="360" width="72" height="36" as="geometry" />
        </mxCell>
        <mxCell id="DDoYbjtW6jiePf0yL-Tp-8" value="" style="sketch=0;points=[[0,0,0],[0.25,0,0],[0.5,0,0],[0.75,0,0],[1,0,0],[0,1,0],[0.25,1,0],[0.5,1,0],[0.75,1,0],[1,1,0],[0,0.25,0],[0,0.5,0],[0,0.75,0],[1,0.25,0],[1,0.5,0],[1,0.75,0]];outlineConnect=0;fillColor=#3333FF;strokeColor=#FFFFFF;dashed=0;verticalLabelPosition=bottom;verticalAlign=top;align=center;html=1;fontSize=12;fontStyle=0;aspect=fixed;shape=mxgraph.aws4.resourceIcon;resIcon=mxgraph.aws4.codepipeline;" parent="1" vertex="1">
          <mxGeometry x="299.77" y="162" width="54" height="54" as="geometry" />
        </mxCell>
        <mxCell id="DDoYbjtW6jiePf0yL-Tp-19" style="edgeStyle=orthogonalEdgeStyle;rounded=0;orthogonalLoop=1;jettySize=auto;html=1;entryX=0;entryY=0.5;entryDx=0;entryDy=0;entryPerimeter=0;strokeColor=#000000;" parent="1" source="DDoYbjtW6jiePf0yL-Tp-3" target="DDoYbjtW6jiePf0yL-Tp-6" edge="1">
          <mxGeometry relative="1" as="geometry" />
        </mxCell>
        <mxCell id="DDoYbjtW6jiePf0yL-Tp-54" value="" style="sketch=0;outlineConnect=0;fontColor=#232F3E;gradientColor=none;fillColor=#7AA116;strokeColor=none;dashed=0;verticalLabelPosition=bottom;verticalAlign=top;align=center;html=1;fontSize=12;fontStyle=0;aspect=fixed;pointerEvents=1;shape=mxgraph.aws4.connector;rotation=90;" parent="1" vertex="1">
          <mxGeometry x="299.77" y="36.00000000000006" width="52.4" height="19.48" as="geometry" />
        </mxCell>
        <mxCell id="8PcKajMd3n9XK8rWufk9-11" style="edgeStyle=orthogonalEdgeStyle;rounded=0;orthogonalLoop=1;jettySize=auto;html=1;" edge="1" parent="1" source="DDoYbjtW6jiePf0yL-Tp-58" target="DDoYbjtW6jiePf0yL-Tp-8">
          <mxGeometry relative="1" as="geometry" />
        </mxCell>
        <mxCell id="DDoYbjtW6jiePf0yL-Tp-58" value="&lt;b&gt;AWS Connector for GitHub&lt;/b&gt;" style="text;html=1;align=center;verticalAlign=middle;whiteSpace=wrap;rounded=0;movable=1;resizable=1;rotatable=1;deletable=1;editable=1;locked=0;connectable=1;container=0;" parent="1" vertex="1">
          <mxGeometry x="278.71" y="81" width="94.51" height="27" as="geometry" />
        </mxCell>
        <mxCell id="8PcKajMd3n9XK8rWufk9-1" style="edgeStyle=orthogonalEdgeStyle;rounded=0;orthogonalLoop=1;jettySize=auto;html=1;" edge="1" parent="1" source="DDoYbjtW6jiePf0yL-Tp-6" target="DDoYbjtW6jiePf0yL-Tp-54">
          <mxGeometry relative="1" as="geometry" />
        </mxCell>
        <mxCell id="8PcKajMd3n9XK8rWufk9-3" value="" style="sketch=0;outlineConnect=0;fontColor=#232F3E;gradientColor=none;fillColor=#DD344C;strokeColor=none;dashed=0;verticalLabelPosition=bottom;verticalAlign=top;align=center;html=1;fontSize=12;fontStyle=0;aspect=fixed;pointerEvents=1;shape=mxgraph.aws4.role;" vertex="1" parent="1">
          <mxGeometry x="62.6" y="243" width="63.81" height="36" as="geometry" />
        </mxCell>
        <mxCell id="8PcKajMd3n9XK8rWufk9-5" value="&lt;b&gt;IAM Role Permissions&lt;/b&gt;" style="text;html=1;align=center;verticalAlign=middle;whiteSpace=wrap;rounded=0;movable=1;resizable=1;rotatable=1;deletable=1;editable=1;locked=0;connectable=1;container=0;" vertex="1" parent="1">
          <mxGeometry x="54" y="279" width="81" height="45" as="geometry" />
        </mxCell>
        <mxCell id="DDoYbjtW6jiePf0yL-Tp-3" value="" style="points=[[0.35,0,0],[0.98,0.51,0],[1,0.71,0],[0.67,1,0],[0,0.795,0],[0,0.65,0]];verticalLabelPosition=bottom;sketch=0;html=1;verticalAlign=top;aspect=fixed;align=center;pointerEvents=1;shape=mxgraph.cisco19.user;strokeColor=#000000;fillColor=#000000;" parent="1" vertex="1">
          <mxGeometry x="63" y="18" width="54" height="54" as="geometry" />
        </mxCell>
        <mxCell id="DDoYbjtW6jiePf0yL-Tp-12" value="&lt;b&gt;Developer&lt;/b&gt;" style="text;html=1;align=center;verticalAlign=middle;whiteSpace=wrap;rounded=0;movable=1;resizable=1;rotatable=1;deletable=1;editable=1;locked=0;connectable=1;container=0;" parent="1" vertex="1">
          <mxGeometry x="54" y="81" width="72" height="9" as="geometry" />
        </mxCell>
        <mxCell id="DDoYbjtW6jiePf0yL-Tp-6" value="" style="verticalLabelPosition=bottom;html=1;verticalAlign=top;align=center;strokeColor=none;fillColor=#000000;shape=mxgraph.azure.github_code;pointerEvents=1;aspect=fixed;" parent="1" vertex="1">
          <mxGeometry x="180" y="18.740000000000002" width="54" height="54" as="geometry" />
        </mxCell>
        <mxCell id="DDoYbjtW6jiePf0yL-Tp-13" value="&lt;b&gt;GitHub&lt;br&gt;Repository&lt;/b&gt;" style="text;html=1;align=center;verticalAlign=middle;whiteSpace=wrap;rounded=0;movable=1;resizable=1;rotatable=1;deletable=1;editable=1;locked=0;connectable=1;container=0;" parent="1" vertex="1">
          <mxGeometry x="171" y="80.99999999999999" width="72" height="27" as="geometry" />
        </mxCell>
        <mxCell id="8PcKajMd3n9XK8rWufk9-13" style="edgeStyle=orthogonalEdgeStyle;rounded=0;orthogonalLoop=1;jettySize=auto;html=1;entryX=0;entryY=0.5;entryDx=0;entryDy=0;entryPerimeter=0;strokeColor=#FF0000;endArrow=none;endFill=0;" edge="1" parent="1" source="8PcKajMd3n9XK8rWufk9-3" target="DDoYbjtW6jiePf0yL-Tp-8">
          <mxGeometry relative="1" as="geometry" />
        </mxCell>
        <mxCell id="8PcKajMd3n9XK8rWufk9-14" style="edgeStyle=orthogonalEdgeStyle;rounded=0;orthogonalLoop=1;jettySize=auto;html=1;entryX=0;entryY=0.5;entryDx=0;entryDy=0;entryPerimeter=0;strokeColor=#FF0000;endArrow=none;endFill=0;" edge="1" parent="1" source="8PcKajMd3n9XK8rWufk9-3" target="DDoYbjtW6jiePf0yL-Tp-10">
          <mxGeometry relative="1" as="geometry" />
        </mxCell>
        <mxCell id="8PcKajMd3n9XK8rWufk9-15" value="Auto Scaling group" style="points=[[0,0],[0.25,0],[0.5,0],[0.75,0],[1,0],[1,0.25],[1,0.5],[1,0.75],[1,1],[0.75,1],[0.5,1],[0.25,1],[0,1],[0,0.75],[0,0.5],[0,0.25]];outlineConnect=0;gradientColor=none;html=1;whiteSpace=wrap;fontSize=12;fontStyle=0;container=0;pointerEvents=0;collapsible=0;recursiveResize=0;shape=mxgraph.aws4.groupCenter;grIcon=mxgraph.aws4.group_auto_scaling_group;grStroke=1;strokeColor=#D86613;fillColor=none;verticalAlign=top;align=center;fontColor=#D86613;dashed=1;spacingTop=25;movable=1;resizable=1;rotatable=1;deletable=1;editable=1;locked=0;connectable=1;" vertex="1" parent="1">
          <mxGeometry x="450" y="18" width="180" height="387" as="geometry" />
        </mxCell>
        <mxCell id="8PcKajMd3n9XK8rWufk9-28" value="Public subnet" style="points=[[0,0],[0.25,0],[0.5,0],[0.75,0],[1,0],[1,0.25],[1,0.5],[1,0.75],[1,1],[0.75,1],[0.5,1],[0.25,1],[0,1],[0,0.75],[0,0.5],[0,0.25]];outlineConnect=0;gradientColor=none;html=1;whiteSpace=wrap;fontSize=12;fontStyle=0;container=0;pointerEvents=0;collapsible=0;recursiveResize=0;shape=mxgraph.aws4.group;grIcon=mxgraph.aws4.group_security_group;grStroke=0;strokeColor=#7AA116;fillColor=#F2F6E8;verticalAlign=top;align=left;spacingLeft=30;fontColor=#248814;dashed=0;movable=1;resizable=1;rotatable=1;deletable=1;editable=1;locked=0;connectable=1;" vertex="1" parent="1">
          <mxGeometry x="468" y="99" width="144" height="117" as="geometry" />
        </mxCell>
        <mxCell id="8PcKajMd3n9XK8rWufk9-19" value="Application" style="text;html=1;align=center;verticalAlign=middle;whiteSpace=wrap;rounded=0;labelBackgroundColor=none;fontColor=#FF8000;fontStyle=1;movable=1;resizable=1;rotatable=1;deletable=1;editable=1;locked=0;connectable=1;container=0;" vertex="1" parent="1">
          <mxGeometry x="504.6923076923077" y="188.42000000000002" width="70.61538461538461" height="18" as="geometry" />
        </mxCell>
        <mxCell id="8PcKajMd3n9XK8rWufk9-20" value="EC2" style="text;html=1;align=center;verticalAlign=middle;whiteSpace=wrap;rounded=0;labelBackgroundColor=none;fontColor=#FF8000;fontStyle=1;movable=1;resizable=1;rotatable=1;deletable=1;editable=1;locked=0;connectable=1;container=0;" vertex="1" parent="1">
          <mxGeometry x="527.5369230769231" y="126" width="24.923076923076923" height="18" as="geometry" />
        </mxCell>
        <mxCell id="8PcKajMd3n9XK8rWufk9-21" value="" style="sketch=0;points=[[0,0,0],[0.25,0,0],[0.5,0,0],[0.75,0,0],[1,0,0],[0,1,0],[0.25,1,0],[0.5,1,0],[0.75,1,0],[1,1,0],[0,0.25,0],[0,0.5,0],[0,0.75,0],[1,0.25,0],[1,0.5,0],[1,0.75,0]];outlineConnect=0;fontColor=#232F3E;fillColor=#ED7100;strokeColor=#ffffff;dashed=0;verticalLabelPosition=bottom;verticalAlign=top;align=center;html=1;fontSize=12;fontStyle=0;aspect=fixed;shape=mxgraph.aws4.resourceIcon;resIcon=mxgraph.aws4.compute;movable=1;resizable=1;rotatable=1;deletable=1;editable=1;locked=0;connectable=1;container=0;" vertex="1" parent="1">
          <mxGeometry x="517.7869230769231" y="143.99999999999994" width="44.42" height="44.42" as="geometry" />
        </mxCell>
        <mxCell id="8PcKajMd3n9XK8rWufk9-36" value="Public subnet" style="points=[[0,0],[0.25,0],[0.5,0],[0.75,0],[1,0],[1,0.25],[1,0.5],[1,0.75],[1,1],[0.75,1],[0.5,1],[0.25,1],[0,1],[0,0.75],[0,0.5],[0,0.25]];outlineConnect=0;gradientColor=none;html=1;whiteSpace=wrap;fontSize=12;fontStyle=0;container=0;pointerEvents=0;collapsible=0;recursiveResize=0;shape=mxgraph.aws4.group;grIcon=mxgraph.aws4.group_security_group;grStroke=0;strokeColor=#7AA116;fillColor=#F2F6E8;verticalAlign=top;align=left;spacingLeft=30;fontColor=#248814;dashed=0;movable=1;resizable=1;rotatable=1;deletable=1;editable=1;locked=0;connectable=1;" vertex="1" parent="1">
          <mxGeometry x="468" y="270" width="144" height="117" as="geometry" />
        </mxCell>
        <mxCell id="8PcKajMd3n9XK8rWufk9-37" value="Application" style="text;html=1;align=center;verticalAlign=middle;whiteSpace=wrap;rounded=0;labelBackgroundColor=none;fontColor=#FF8000;fontStyle=1;movable=1;resizable=1;rotatable=1;deletable=1;editable=1;locked=0;connectable=1;container=0;" vertex="1" parent="1">
          <mxGeometry x="504.6923076923077" y="355.21000000000004" width="70.61538461538461" height="18" as="geometry" />
        </mxCell>
        <mxCell id="8PcKajMd3n9XK8rWufk9-38" value="EC2" style="text;html=1;align=center;verticalAlign=middle;whiteSpace=wrap;rounded=0;labelBackgroundColor=none;fontColor=#FF8000;fontStyle=1;movable=1;resizable=1;rotatable=1;deletable=1;editable=1;locked=0;connectable=1;container=0;" vertex="1" parent="1">
          <mxGeometry x="527.5369230769231" y="292.79" width="24.923076923076923" height="18" as="geometry" />
        </mxCell>
        <mxCell id="8PcKajMd3n9XK8rWufk9-39" value="" style="sketch=0;points=[[0,0,0],[0.25,0,0],[0.5,0,0],[0.75,0,0],[1,0,0],[0,1,0],[0.25,1,0],[0.5,1,0],[0.75,1,0],[1,1,0],[0,0.25,0],[0,0.5,0],[0,0.75,0],[1,0.25,0],[1,0.5,0],[1,0.75,0]];outlineConnect=0;fontColor=#232F3E;fillColor=#ED7100;strokeColor=#ffffff;dashed=0;verticalLabelPosition=bottom;verticalAlign=top;align=center;html=1;fontSize=12;fontStyle=0;aspect=fixed;shape=mxgraph.aws4.resourceIcon;resIcon=mxgraph.aws4.compute;movable=1;resizable=1;rotatable=1;deletable=1;editable=1;locked=0;connectable=1;container=0;" vertex="1" parent="1">
          <mxGeometry x="517.7869230769231" y="310.78999999999996" width="44.42" height="44.42" as="geometry" />
        </mxCell>
        <mxCell id="8PcKajMd3n9XK8rWufk9-46" style="edgeStyle=orthogonalEdgeStyle;rounded=0;orthogonalLoop=1;jettySize=auto;html=1;endArrow=classic;endFill=1;strokeColor=#000000;" edge="1" parent="1" source="DDoYbjtW6jiePf0yL-Tp-10" target="8PcKajMd3n9XK8rWufk9-39">
          <mxGeometry relative="1" as="geometry" />
        </mxCell>
        <mxCell id="8PcKajMd3n9XK8rWufk9-45" style="edgeStyle=orthogonalEdgeStyle;rounded=0;orthogonalLoop=1;jettySize=auto;html=1;entryX=0;entryY=0.5;entryDx=0;entryDy=0;entryPerimeter=0;endArrow=classic;endFill=1;strokeColor=#000000;" edge="1" parent="1" source="DDoYbjtW6jiePf0yL-Tp-10" target="8PcKajMd3n9XK8rWufk9-21">
          <mxGeometry relative="1" as="geometry">
            <Array as="points">
              <mxPoint x="396" y="333" />
              <mxPoint x="396" y="166" />
            </Array>
          </mxGeometry>
        </mxCell>
        <mxCell id="8PcKajMd3n9XK8rWufk9-30" value="Availability Zone 1" style="sketch=0;outlineConnect=0;gradientColor=none;html=1;whiteSpace=wrap;fontSize=12;fontStyle=0;shape=mxgraph.aws4.group;grIcon=mxgraph.aws4.group_availability_zone;strokeColor=#545B64;fillColor=none;verticalAlign=top;align=left;spacingLeft=30;fontColor=#545B64;dashed=1;container=0;" vertex="1" parent="1">
          <mxGeometry x="441" y="72" width="198" height="153" as="geometry" />
        </mxCell>
        <mxCell id="8PcKajMd3n9XK8rWufk9-41" value="Availability Zone 2" style="sketch=0;outlineConnect=0;gradientColor=none;html=1;whiteSpace=wrap;fontSize=12;fontStyle=0;shape=mxgraph.aws4.group;grIcon=mxgraph.aws4.group_availability_zone;strokeColor=#545B64;fillColor=none;verticalAlign=top;align=left;spacingLeft=30;fontColor=#545B64;dashed=1;container=0;" vertex="1" parent="1">
          <mxGeometry x="441" y="243" width="198" height="153" as="geometry" />
        </mxCell>
      </root>
    </mxGraphModel>
  </diagram>
</mxfile>
